<?xml version="1.0" encoding="UTF-8" standalone="no"?>
<!-- Created with Inkscape (http://www.inkscape.org/) -->

<svg
   xmlns:dc="http://purl.org/dc/elements/1.1/"
   xmlns:cc="http://creativecommons.org/ns#"
   xmlns:rdf="http://www.w3.org/1999/02/22-rdf-syntax-ns#"
   xmlns:svg="http://www.w3.org/2000/svg"
   xmlns="http://www.w3.org/2000/svg"
   xmlns:xlink="http://www.w3.org/1999/xlink"
   xmlns:sodipodi="http://sodipodi.sourceforge.net/DTD/sodipodi-0.dtd"
   xmlns:inkscape="http://www.inkscape.org/namespaces/inkscape"
   width="744.09448819"
   height="1052.3622047"
   id="svg2"
   version="1.1"
   inkscape:version="0.48.0 r9654"
   sodipodi:docname="chronotank.svg">
  <defs
     id="defs4">
    <linearGradient
       id="linearGradient4204">
      <stop
         id="stop4206"
         offset="0"
         style="stop-color:#a0892c;stop-opacity:0;" />
      <stop
         id="stop4208"
         offset="1"
         style="stop-color:#000000;stop-opacity:1;" />
    </linearGradient>
    <linearGradient
       inkscape:collect="always"
       id="linearGradient4139">
      <stop
         style="stop-color:#ffdd55;stop-opacity:0"
         offset="0"
         id="stop4141" />
      <stop
         id="stop4147"
         offset="0.83787936"
         style="stop-color:#ffc255;stop-opacity:0" />
      <stop
         style="stop-color:#ffbd56;stop-opacity:1"
         offset="1"
         id="stop4143" />
    </linearGradient>
    <linearGradient
       id="linearGradient4127">
      <stop
         style="stop-color:#ffffff;stop-opacity:1"
         offset="0"
         id="stop4129" />
      <stop
         style="stop-color:#cccccc;stop-opacity:1"
         offset="1"
         id="stop4131" />
    </linearGradient>
    <linearGradient
       inkscape:collect="always"
       id="linearGradient4119">
      <stop
         style="stop-color:#000000;stop-opacity:1"
         offset="0"
         id="stop4121" />
      <stop
         style="stop-color:#550000;stop-opacity:0;"
         offset="1"
         id="stop4123" />
    </linearGradient>
    <linearGradient
       inkscape:collect="always"
       id="linearGradient3232">
      <stop
         style="stop-color:#a0892c;stop-opacity:1;"
         offset="0"
         id="stop3234" />
      <stop
         style="stop-color:#554400;stop-opacity:1"
         offset="1"
         id="stop3236" />
    </linearGradient>
    <linearGradient
       inkscape:collect="always"
       xlink:href="#linearGradient3232"
       id="linearGradient3238"
       x1="80.256622"
       y1="28.11801"
       x2="80.256622"
       y2="33.7859"
       gradientUnits="userSpaceOnUse"
       spreadMethod="repeat"
       gradientTransform="translate(-2,0)" />
    <linearGradient
       inkscape:collect="always"
       xlink:href="#linearGradient3232"
       id="linearGradient4010"
       gradientUnits="userSpaceOnUse"
       spreadMethod="repeat"
       x1="80.256622"
       y1="28.11801"
       x2="80.256622"
       y2="33.7859"
       gradientTransform="translate(75.478445,0)" />
    <linearGradient
       inkscape:collect="always"
       xlink:href="#linearGradient4119"
       id="linearGradient4125"
       x1="231.53494"
       y1="65.048546"
       x2="248.72488"
       y2="80.341721"
       gradientUnits="userSpaceOnUse" />
    <radialGradient
       inkscape:collect="always"
       xlink:href="#linearGradient4127"
       id="radialGradient4133"
       cx="242.625"
       cy="75.362183"
       fx="242.625"
       fy="75.362183"
       r="11.125"
       gradientUnits="userSpaceOnUse" />
    <radialGradient
       inkscape:collect="always"
       xlink:href="#linearGradient4139"
       id="radialGradient4145"
       cx="355.5"
       cy="81.862183"
       fx="355.5"
       fy="81.862183"
       r="40.5"
       gradientUnits="userSpaceOnUse"
       gradientTransform="matrix(0.90843239,0,0,0.90843239,32.552285,7.4959244)" />
    <filter
       inkscape:collect="always"
       id="filter4163">
      <feGaussianBlur
         inkscape:collect="always"
         stdDeviation="3.1249943"
         id="feGaussianBlur4165" />
    </filter>
    <filter
       inkscape:collect="always"
       id="filter4177"
       x="-0.29149706"
       width="1.5829941"
       y="-0.31895693"
       height="1.6379139">
      <feGaussianBlur
         inkscape:collect="always"
         stdDeviation="2.2925029"
         id="feGaussianBlur4179" />
    </filter>
    <linearGradient
       inkscape:collect="always"
       xlink:href="#linearGradient4204"
       id="linearGradient4200"
       gradientUnits="userSpaceOnUse"
       gradientTransform="translate(75.478445,138)"
       spreadMethod="repeat"
       x1="80.256622"
       y1="28.11801"
       x2="80.256622"
       y2="33.7859" />
    <linearGradient
       inkscape:collect="always"
       xlink:href="#linearGradient4204"
       id="linearGradient4202"
       gradientUnits="userSpaceOnUse"
       gradientTransform="translate(-2,138)"
       spreadMethod="repeat"
       x1="80.256622"
       y1="28.11801"
       x2="80.256622"
       y2="33.7859" />
  </defs>
  <sodipodi:namedview
     id="base"
     pagecolor="#ffffff"
     bordercolor="#666666"
     borderopacity="1.0"
     inkscape:pageopacity="0.0"
     inkscape:pageshadow="2"
     inkscape:zoom="1"
     inkscape:cx="487.54985"
     inkscape:cy="792.89433"
     inkscape:document-units="px"
     inkscape:current-layer="layer1"
     showgrid="false"
     inkscape:window-width="1680"
     inkscape:window-height="1023"
     inkscape:window-x="1280"
     inkscape:window-y="0"
     inkscape:window-maximized="1" />
  <metadata
     id="metadata7">
    <rdf:RDF>
      <cc:Work
         rdf:about="">
        <dc:format>image/svg+xml</dc:format>
        <dc:type
           rdf:resource="http://purl.org/dc/dcmitype/StillImage" />
      </cc:Work>
    </rdf:RDF>
  </metadata>
  <g
     inkscape:label="Layer 1"
     inkscape:groupmode="layer"
     id="layer1">
    <path
       style="opacity:0.25;color:#000000;fill:#000000;fill-opacity:1;fill-rule:evenodd;stroke:none;stroke-width:2;marker:none;visibility:visible;display:inline;overflow:visible;enable-background:accumulate"
       d="m 128.59375,326 c -2.1494,0.15025 -4.18078,1.32943 -5.34375,3.34375 l 14.59375,46.25 -63.625,-18.25 C 70.6415,356.31766 67.5,360.341 67.5,364.0625 l 0,10.96875 c 0,3.7215 3.10334,5.83648 6.71875,6.71875 l 47.125,11.5 c 0.17471,0.0426 0.35505,-0.0175 0.53125,-0.0312 0.0524,0.10232 0.0981,0.21178 0.15625,0.3125 l 2.1875,16.96875 c 1.86075,3.22292 5.96458,4.3295 9.1875,2.46875 l 27.5,7.84375 c 6.1114,4.00994 10.19333,-14.69013 10.03125,-14.90625 l -23.3125,-66.125 c 1.86075,-3.22292 -2.49583,-5.5455 -5.71875,-7.40625 l -9.46875,-5.5 c -1.20859,-0.69778 -2.55411,-0.96515 -3.84375,-0.875 z"
       id="rect4226"
       inkscape:connector-curvature="0"
       sodipodi:nodetypes="cccssssscccccccccsc" />
    <rect
       ry="1.2626945"
       rx="1.2626944"
       y="28.11801"
       x="153.61374"
       height="116.67262"
       width="13.435029"
       id="rect4008"
       style="color:#000000;fill:url(#linearGradient4010);fill-opacity:1;fill-rule:evenodd;stroke:#000000;stroke-width:1;stroke-linecap:butt;stroke-linejoin:miter;stroke-miterlimit:4;stroke-opacity:1;stroke-dasharray:none;stroke-dashoffset:0;marker:none;visibility:visible;display:inline;overflow:visible;enable-background:accumulate" />
    <rect
       style="color:#000000;fill:url(#linearGradient3238);fill-opacity:1;fill-rule:evenodd;stroke:#000000;stroke-width:1;stroke-linecap:butt;stroke-linejoin:miter;stroke-miterlimit:4;stroke-opacity:1;stroke-dasharray:none;stroke-dashoffset:0;marker:none;visibility:visible;display:inline;overflow:visible;enable-background:accumulate"
       id="rect3230"
       width="13.435029"
       height="116.67262"
       x="76.1353"
       y="28.11801"
       rx="1.2626944"
       ry="1.2626945" />
    <g
       id="g3003"
       transform="matrix(1.3610376,0,0,1.3610376,-43.673188,-55.814155)">
      <path
         sodipodi:nodetypes="sssccccssssccccss"
         inkscape:connector-curvature="0"
         id="rect2985"
         d="m 95.459415,59.382229 51.012705,0 c 1.95868,0 3.53553,1.576848 3.53553,3.535534 l 0,22.980971 -5.55584,9.091373 0,17.425133 5.55584,9.09137 0,25.75889 c 0,1.95869 -1.57685,3.53554 -3.53553,3.53554 l -51.012705,0 c -1.958685,0 -3.535533,-1.57685 -3.535533,-3.53554 l 0,-25.75889 5.555839,-9.09137 0,-17.425133 -5.555839,-9.091373 0,-22.980971 c 0,-1.958686 1.576848,-3.535534 3.535533,-3.535534 z"
         style="color:#000000;fill:#a0892c;fill-opacity:1;fill-rule:evenodd;stroke:#736426;stroke-width:0.73473358;stroke-linecap:butt;stroke-linejoin:miter;stroke-miterlimit:4;stroke-opacity:1;stroke-dasharray:none;stroke-dashoffset:0;marker:none;visibility:visible;display:inline;overflow:visible;enable-background:accumulate" />
      <path
         d="m 133.08759,117.84481 c 0,6.34602 -5.14446,11.49049 -11.49048,11.49049 -6.34602,0 -11.49049,-5.14447 -11.49049,-11.49049 0,-6.34602 5.14447,-11.49048 11.49049,-11.49048 6.34602,0 11.49048,5.14446 11.49048,11.49048 z"
         sodipodi:ry="11.490485"
         sodipodi:rx="11.490485"
         sodipodi:cy="117.84481"
         sodipodi:cx="121.59711"
         id="path2988"
         style="color:#000000;fill:#a0892c;fill-opacity:1;fill-rule:evenodd;stroke:#736426;stroke-width:0.73473358;stroke-linecap:butt;stroke-linejoin:miter;stroke-miterlimit:4;stroke-opacity:1;stroke-dasharray:none;stroke-dashoffset:0;marker:none;visibility:visible;display:inline;overflow:visible;enable-background:accumulate"
         sodipodi:type="arc" />
      <rect
         ry="0.92774403"
         rx="0.92774403"
         y="150.04343"
         x="96.97464"
         height="4.5456862"
         width="12.626906"
         id="rect2990"
         style="color:#000000;fill:#a0892c;fill-opacity:1;fill-rule:evenodd;stroke:#736426;stroke-width:0.73473358;stroke-linecap:butt;stroke-linejoin:miter;stroke-miterlimit:4;stroke-opacity:1;stroke-dasharray:none;stroke-dashoffset:0;marker:none;visibility:visible;display:inline;overflow:visible;enable-background:accumulate" />
      <rect
         ry="0.92774403"
         rx="0.92774403"
         y="62.412689"
         x="109.60154"
         height="8.3337584"
         width="12.626906"
         id="rect2994"
         style="color:#000000;fill:#a0892c;fill-opacity:1;fill-rule:evenodd;stroke:#736426;stroke-width:0.73473358;stroke-linecap:butt;stroke-linejoin:miter;stroke-miterlimit:4;stroke-opacity:1;stroke-dasharray:none;stroke-dashoffset:0;marker:none;visibility:visible;display:inline;overflow:visible;enable-background:accumulate" />
      <path
         id="path2996"
         d="m 142.03125,59.375 -0.0937,0.25 0,90.65625 c 0,0 0.12824,0.42706 0.15625,0.53125 l 4.375,0 c 1.95868,0 3.53125,-1.60381 3.53125,-3.5625 l 0,-25.75 -5.5625,-9.09375 0,-17.40625 5.5625,-9.09375 0,-23 c 0,-1.958686 -1.57257,-3.53125 -3.53125,-3.53125 l -4.4375,0 z"
         style="opacity:0.25;color:#000000;fill:#000000;fill-opacity:1;fill-rule:evenodd;stroke:none;stroke-width:1;marker:none;visibility:visible;display:inline;overflow:visible;enable-background:accumulate"
         inkscape:connector-curvature="0" />
      <path
         inkscape:connector-curvature="0"
         style="opacity:0.25;color:#000000;fill:#000000;fill-opacity:1;fill-rule:evenodd;stroke:none;stroke-width:1;marker:none;visibility:visible;display:inline;overflow:visible;enable-background:accumulate"
         d="m 100.15624,59.375 0.0937,0.25 0,90.65625 c 0,0 -0.12824,0.42706 -0.15625,0.53125 l -4.375003,0 c -1.95868,0 -3.53125,-1.60381 -3.53125,-3.5625 l 0,-25.75 5.5625,-9.09375 0,-17.40625 -5.5625,-9.09375 0,-23 c 0,-1.958686 1.57257,-3.53125 3.53125,-3.53125 l 4.437503,0 z"
         id="path3001" />
      <rect
         style="color:#000000;fill:#a0892c;fill-opacity:1;fill-rule:evenodd;stroke:#736426;stroke-width:0.73473358;stroke-linecap:butt;stroke-linejoin:miter;stroke-miterlimit:4;stroke-opacity:1;stroke-dasharray:none;stroke-dashoffset:0;marker:none;visibility:visible;display:inline;overflow:visible;enable-background:accumulate"
         id="rect2992"
         width="12.626906"
         height="8.3337584"
         x="94.95433"
         y="62.412689"
         rx="0.92774403"
         ry="0.92774403" />
      <path
         style="color:#000000;fill:none;stroke:#000000;stroke-width:2;stroke-linecap:butt;stroke-linejoin:miter;stroke-miterlimit:4;stroke-opacity:1;stroke-dasharray:none;stroke-dashoffset:0;marker:none;visibility:visible;display:inline;overflow:visible;enable-background:accumulate"
         d="M 141.5 24 C 141.5 24.344595 141.53441 24.672514 141.59375 25 L 86.25 25 C 83.584156 25 81.46875 27.146655 81.46875 29.8125 L 81.46875 61.09375 L 89 73.5 L 89 97.1875 L 81.46875 109.5625 L 81.46875 144.59375 C 81.46875 147.2596 83.584156 149.4375 86.25 149.4375 L 88.4375 149.4375 C 88.350761 149.64325 88.3125 149.88698 88.3125 150.125 L 88.3125 152.84375 C 88.3125 153.79584 89.110409 154.59375 90.0625 154.59375 L 103.78125 154.59375 C 104.73334 154.59375 105.5 153.79584 105.5 152.84375 L 105.5 150.125 C 105.5 149.88698 105.4617 149.64325 105.375 149.4375 L 155.6875 149.4375 C 156.35396 149.4375 156.98696 149.30879 157.5625 149.0625 C 158.72655 148.57178 159.61212 147.63762 160.09375 146.46875 C 160.21488 146.17899 160.34251 145.87732 160.40625 145.5625 C 160.47007 145.24869 160.46875 144.92699 160.46875 144.59375 L 160.46875 109.5625 L 152.90625 97.1875 L 152.90625 73.5 L 160.46875 61.09375 L 160.46875 29.8125 C 160.46875 29.465514 160.47539 29.13829 160.40625 28.8125 C 160.34255 28.498846 160.21491 28.22527 160.09375 27.9375 C 159.8509 27.361414 159.52863 26.841134 159.09375 26.40625 C 158.22544 25.537939 157.02042 25 155.6875 25 L 152.65625 25 C 152.71559 24.672514 152.75 24.344595 152.75 24 L 147.125 24 L 141.5 24 z "
         transform="matrix(0.73473356,0,0,0.73473356,32.088157,41.008533)"
         id="path3139" />
      <g
         transform="matrix(0.73473356,0,0,0.73473356,32.088157,41.008535)"
         id="g3183">
        <path
           inkscape:connector-curvature="0"
           id="path3154"
           d="m 97.5,132.73718 17.875,0"
           style="color:#000000;fill:#a0892c;fill-opacity:1;fill-rule:evenodd;stroke:#736426;stroke-width:1;stroke-linecap:butt;stroke-linejoin:miter;stroke-miterlimit:4;stroke-opacity:1;stroke-dasharray:none;stroke-dashoffset:0;marker:none;visibility:visible;display:inline;overflow:visible;enable-background:accumulate" />
        <path
           inkscape:connector-curvature="0"
           id="path3175"
           d="m 97.5,135.20593 17.875,0"
           style="color:#000000;fill:#a0892c;fill-opacity:1;fill-rule:evenodd;stroke:#736426;stroke-width:1;stroke-linecap:butt;stroke-linejoin:miter;stroke-miterlimit:4;stroke-opacity:1;stroke-dasharray:none;stroke-dashoffset:0;marker:none;visibility:visible;display:inline;overflow:visible;enable-background:accumulate" />
        <path
           inkscape:connector-curvature="0"
           id="path3177"
           d="m 97.5,137.67468 17.875,0"
           style="color:#000000;fill:#a0892c;fill-opacity:1;fill-rule:evenodd;stroke:#736426;stroke-width:1;stroke-linecap:butt;stroke-linejoin:miter;stroke-miterlimit:4;stroke-opacity:1;stroke-dasharray:none;stroke-dashoffset:0;marker:none;visibility:visible;display:inline;overflow:visible;enable-background:accumulate" />
        <path
           inkscape:connector-curvature="0"
           id="path3179"
           d="m 97.5,140.14343 17.875,0"
           style="color:#000000;fill:#a0892c;fill-opacity:1;fill-rule:evenodd;stroke:#736426;stroke-width:1;stroke-linecap:butt;stroke-linejoin:miter;stroke-miterlimit:4;stroke-opacity:1;stroke-dasharray:none;stroke-dashoffset:0;marker:none;visibility:visible;display:inline;overflow:visible;enable-background:accumulate" />
        <path
           inkscape:connector-curvature="0"
           id="path3181"
           d="m 97.5,142.61218 17.875,0"
           style="color:#000000;fill:#a0892c;fill-opacity:1;fill-rule:evenodd;stroke:#736426;stroke-width:1;stroke-linecap:butt;stroke-linejoin:miter;stroke-miterlimit:4;stroke-opacity:1;stroke-dasharray:none;stroke-dashoffset:0;marker:none;visibility:visible;display:inline;overflow:visible;enable-background:accumulate" />
      </g>
      <g
         id="g3190"
         transform="matrix(0.73473356,0,0,0.73473356,52.936221,41.008535)">
        <path
           style="color:#000000;fill:#a0892c;fill-opacity:1;fill-rule:evenodd;stroke:#736426;stroke-width:1;stroke-linecap:butt;stroke-linejoin:miter;stroke-miterlimit:4;stroke-opacity:1;stroke-dasharray:none;stroke-dashoffset:0;marker:none;visibility:visible;display:inline;overflow:visible;enable-background:accumulate"
           d="m 97.5,132.73718 17.875,0"
           id="path3192"
           inkscape:connector-curvature="0" />
        <path
           style="color:#000000;fill:#a0892c;fill-opacity:1;fill-rule:evenodd;stroke:#736426;stroke-width:1;stroke-linecap:butt;stroke-linejoin:miter;stroke-miterlimit:4;stroke-opacity:1;stroke-dasharray:none;stroke-dashoffset:0;marker:none;visibility:visible;display:inline;overflow:visible;enable-background:accumulate"
           d="m 97.5,135.20593 17.875,0"
           id="path3194"
           inkscape:connector-curvature="0" />
        <path
           style="color:#000000;fill:#a0892c;fill-opacity:1;fill-rule:evenodd;stroke:#736426;stroke-width:1;stroke-linecap:butt;stroke-linejoin:miter;stroke-miterlimit:4;stroke-opacity:1;stroke-dasharray:none;stroke-dashoffset:0;marker:none;visibility:visible;display:inline;overflow:visible;enable-background:accumulate"
           d="m 97.5,137.67468 17.875,0"
           id="path3196"
           inkscape:connector-curvature="0" />
        <path
           style="color:#000000;fill:#a0892c;fill-opacity:1;fill-rule:evenodd;stroke:#736426;stroke-width:1;stroke-linecap:butt;stroke-linejoin:miter;stroke-miterlimit:4;stroke-opacity:1;stroke-dasharray:none;stroke-dashoffset:0;marker:none;visibility:visible;display:inline;overflow:visible;enable-background:accumulate"
           d="m 97.5,140.14343 17.875,0"
           id="path3198"
           inkscape:connector-curvature="0" />
        <path
           style="color:#000000;fill:#a0892c;fill-opacity:1;fill-rule:evenodd;stroke:#736426;stroke-width:1;stroke-linecap:butt;stroke-linejoin:miter;stroke-miterlimit:4;stroke-opacity:1;stroke-dasharray:none;stroke-dashoffset:0;marker:none;visibility:visible;display:inline;overflow:visible;enable-background:accumulate"
           d="m 97.5,142.61218 17.875,0"
           id="path3200"
           inkscape:connector-curvature="0" />
      </g>
      <path
         sodipodi:type="arc"
         style="color:#000000;fill:#a0892c;fill-opacity:1;fill-rule:evenodd;stroke:#736426;stroke-width:1;stroke-linecap:butt;stroke-linejoin:miter;stroke-miterlimit:4;stroke-opacity:1;stroke-dasharray:none;stroke-dashoffset:0;marker:none;visibility:visible;display:inline;overflow:visible;enable-background:accumulate"
         id="path3202"
         sodipodi:cx="147.375"
         sodipodi:cy="26.987181"
         sodipodi:rx="5.625"
         sodipodi:ry="5.625"
         d="m 153,26.987181 a 5.625,5.625 0 1 1 -11.25,-1e-6 l 5.625,1e-6 z"
         sodipodi:start="0"
         sodipodi:end="3.1415927"
         transform="matrix(0.73473356,0,0,0.73473356,32.088157,40.090117)" />
    </g>
    <g
       id="g3050"
       transform="matrix(1.3610376,0,0,1.3610376,-32.67434,-89.81069)">
      <path
         sodipodi:nodetypes="sssssccssss"
         inkscape:connector-curvature="0"
         id="rect3012"
         d="m 98.742433,128.83023 28.284257,0 c 0.69953,0 1.26269,0.56316 1.26269,1.2627 l 0,22.98096 c 0,0.69953 -0.56316,1.26269 -1.26269,1.26269 l -9.42809,4 -9.42808,0 -9.428087,-4 c -0.64398,-0.27322 -1.2627,-0.56316 -1.2627,-1.26269 l 0,-22.98096 c 0,-0.69954 0.56316,-1.2627 1.2627,-1.2627 z"
         style="color:#000000;fill:#a0892c;fill-opacity:1;fill-rule:evenodd;stroke:#1a1a1a;stroke-width:0.73473358;stroke-linecap:butt;stroke-linejoin:miter;stroke-miterlimit:4;stroke-opacity:1;stroke-dashoffset:0;marker:none;visibility:visible;display:inline;overflow:visible;enable-background:accumulate" />
      <path
         sodipodi:type="arc"
         style="color:#000000;fill:#a0892c;fill-opacity:1;fill-rule:evenodd;stroke:#736426;stroke-width:1.21565008;stroke-linecap:butt;stroke-linejoin:miter;stroke-miterlimit:4;stroke-opacity:1;stroke-dasharray:none;stroke-dashoffset:0;marker:none;visibility:visible;display:inline;overflow:visible;enable-background:accumulate"
         id="path2988-1"
         sodipodi:cx="121.59711"
         sodipodi:cy="117.84481"
         sodipodi:rx="11.490485"
         sodipodi:ry="11.490485"
         d="m 133.08759,117.84481 c 0,6.34602 -5.14446,11.49049 -11.49048,11.49049 -6.34602,0 -11.49049,-5.14447 -11.49049,-11.49049 0,-6.34602 5.14447,-11.49048 11.49049,-11.49048 6.34602,0 11.49048,5.14446 11.49048,11.49048 z"
         transform="matrix(0.6043956,0,0,0.6043956,34.593566,75.030464)" />
      <rect
         style="color:#000000;fill:#a0892c;fill-opacity:1;fill-rule:evenodd;stroke:#736426;stroke-width:0.73473358;stroke-linecap:butt;stroke-linejoin:miter;stroke-miterlimit:4;stroke-opacity:1;stroke-dasharray:none;stroke-dashoffset:0;marker:none;visibility:visible;display:inline;overflow:visible;enable-background:accumulate"
         id="rect3054"
         width="4.5961943"
         height="55.154327"
         x="110.35915"
         y="75.342674"
         rx="0.92774403"
         ry="0.92774403" />
      <rect
         ry="0.92774403"
         rx="0.92774391"
         y="71.807144"
         x="109.82883"
         height="9.8994923"
         width="5.6568542"
         id="rect3056"
         style="color:#000000;fill:#a0892c;fill-opacity:1;fill-rule:evenodd;stroke:#736426;stroke-width:0.73473358;stroke-linecap:butt;stroke-linejoin:miter;stroke-miterlimit:4;stroke-opacity:1;stroke-dasharray:none;stroke-dashoffset:0;marker:none;visibility:visible;display:inline;overflow:visible;enable-background:accumulate" />
      <path
         style="color:#000000;fill:none;stroke:#1a1a1a;stroke-width:1.46946716;stroke-linecap:butt;stroke-linejoin:miter;stroke-miterlimit:4;stroke-opacity:1;stroke-dashoffset:0;marker:none;visibility:visible;display:inline;overflow:visible;enable-background:accumulate"
         d="m 119.1875,47.5625 c -0.69953,0 -1.28125,0.550467 -1.28125,1.25 l 0,7.375 c 0,0.414123 0.22506,0.770011 0.53125,1 l 0,47.40625 -11.625,0 c -0.69954,0 -1.25,0.55046 -1.25,1.25 l 0,23 c 0,0.69953 0.60602,0.97678 1.25,1.25 l 9.4375,4 9.4375,0 9.40625,-4 c 0.69953,0 1.28125,-0.55047 1.28125,-1.25 l 0,-23 c 0,-0.69954 -0.58172,-1.25 -1.28125,-1.25 l -12.0625,0 0,-47.40625 c 0.30619,-0.229989 0.53125,-0.585877 0.53125,-1 l 0,-7.375 c 0,-0.699533 -0.55047,-1.25 -1.25,-1.25 l -3.125,0 z"
         transform="translate(-8.0812204,24.243661)"
         id="path3079"
         inkscape:connector-curvature="0" />
    </g>
    <g
       id="g4102"
       transform="translate(4,4)">
      <rect
         ry="1.2626945"
         rx="1.2626944"
         y="101.71778"
         x="222.09221"
         height="27.809399"
         width="27.809399"
         id="rect4093"
         style="color:#000000;fill:#d4aa00;fill-opacity:1;fill-rule:evenodd;stroke:#000000;stroke-width:2;marker:none;visibility:visible;display:inline;overflow:visible;enable-background:accumulate" />
      <rect
         style="color:#000000;fill:#d4aa00;fill-opacity:1;fill-rule:evenodd;stroke:#806600;stroke-width:1;marker:none;visibility:visible;display:inline;overflow:visible;enable-background:accumulate"
         id="rect4095"
         width="18.738329"
         height="18.738329"
         x="226.62773"
         y="106.25331"
         rx="1.2626944"
         ry="1.2626945" />
      <path
         id="rect4097"
         d="m 241.84375,106.25 -15.21875,15.21875 0,2.25 c 0,0.69953 0.55047,1.28125 1.25,1.28125 l 2.28125,0 15.21875,-15.21875 0,-2.25 c 0,-0.69953 -0.58172,-1.28125 -1.28125,-1.28125 l -2.25,0 z"
         style="color:#000000;fill:#d4aa00;fill-opacity:1;fill-rule:evenodd;stroke:#806600;stroke-width:1;marker:none;visibility:visible;display:inline;overflow:visible;enable-background:accumulate"
         inkscape:connector-curvature="0" />
    </g>
    <g
       id="g4291">
      <path
         transform="matrix(1.0941176,0,0,1.0941176,-22.6,-6.8929113)"
         d="m 250.75,73.237183 a 10.625,10.625 0 1 1 -21.25,0 10.625,10.625 0 1 1 21.25,0 z"
         sodipodi:ry="10.625"
         sodipodi:rx="10.625"
         sodipodi:cy="73.237183"
         sodipodi:cx="240.125"
         id="path4107"
         style="color:#000000;fill:url(#radialGradient4133);fill-opacity:1;fill-rule:evenodd;stroke:#550000;stroke-width:1.82795703;stroke-linecap:butt;stroke-linejoin:miter;stroke-miterlimit:4;stroke-opacity:1;stroke-dasharray:none;stroke-dashoffset:0;marker:none;visibility:visible;display:inline;overflow:visible;enable-background:accumulate"
         sodipodi:type="arc" />
      <path
         transform="matrix(0.91330088,0,0,0.95261124,20.94431,3.7089599)"
         sodipodi:type="arc"
         style="color:#000000;fill:none;stroke:url(#linearGradient4125);stroke-width:2.14419958;stroke-linecap:butt;stroke-linejoin:miter;stroke-miterlimit:4;stroke-opacity:1;stroke-dasharray:none;stroke-dashoffset:0;marker:none;visibility:visible;display:inline;overflow:visible;enable-background:accumulate;opacity:0.59999999999999998"
         id="path4109"
         sodipodi:cx="240.125"
         sodipodi:cy="73.237183"
         sodipodi:rx="10.625"
         sodipodi:ry="10.625"
         d="m 250.75,73.237183 a 10.625,10.625 0 1 1 -21.25,0 10.625,10.625 0 1 1 21.25,0 z" />
    </g>
    <path
       sodipodi:type="arc"
       style="color:#000000;fill:url(#radialGradient4145);fill-opacity:1;stroke:#ffa922;stroke-width:2;marker:none;visibility:visible;display:inline;overflow:visible;enable-background:accumulate;stroke-opacity:1"
       id="path4135"
       sodipodi:cx="355.5"
       sodipodi:cy="81.862183"
       sodipodi:rx="38.5"
       sodipodi:ry="38.5"
       d="m 394,81.862183 a 38.5,38.5 0 1 1 -77,0 38.5,38.5 0 1 1 77,0 z"
       transform="translate(13.507392,-0.53438526)" />
    <g
       id="g4167"
       transform="matrix(1.889972,0,0,1.889972,-328.40624,-72.379463)">
      <path
         transform="matrix(0.40732826,0,0,0.40732826,223.62234,47.912662)"
         inkscape:transform-center-x="-7.1678624"
         d="m 425.88702,82.034904 -43.7822,7.812491 32.60818,30.242725 -41.05568,-17.09815 11.08129,43.07111 -25.29427,-36.58026 -13.96383,42.22472 -1.50211,-44.44839 -34.57553,27.97229 22.76696,-38.204476 -44.20975,4.838846 39.80768,-19.830905 -39.80768,-19.830901 44.20975,4.838841 -22.76696,-38.204472 34.57553,27.972286 1.50211,-44.448394 13.96383,42.224727 25.29427,-36.580264 -11.08129,43.071116 41.05568,-17.09816 -32.60818,30.24273 z"
         inkscape:randomized="0"
         inkscape:rounded="0"
         inkscape:flatsided="false"
         sodipodi:arg2="0.28559933"
         sodipodi:arg1="0"
         sodipodi:r2="27.730165"
         sodipodi:r1="70.389099"
         sodipodi:cy="82.034904"
         sodipodi:cx="355.49792"
         sodipodi:sides="11"
         id="path4137"
         style="color:#000000;fill:#ffdd55;fill-opacity:1;fill-rule:evenodd;stroke:none;stroke-width:4;marker:none;visibility:visible;display:inline;overflow:visible;enable-background:accumulate"
         sodipodi:type="star" />
      <path
         sodipodi:type="star"
         style="color:#000000;fill:#ff6600;fill-opacity:1;fill-rule:evenodd;stroke:none;stroke-width:4;marker:none;visibility:visible;display:inline;overflow:visible;filter:url(#filter4163);enable-background:accumulate"
         id="path4149"
         sodipodi:sides="11"
         sodipodi:cx="355.49792"
         sodipodi:cy="82.034904"
         sodipodi:r1="70.389099"
         sodipodi:r2="21.851318"
         sodipodi:arg1="0"
         sodipodi:arg2="0.28559933"
         inkscape:flatsided="false"
         inkscape:rounded="0"
         inkscape:randomized="0"
         d="m 425.88702,82.034904 -49.42291,6.156228 38.24889,31.898988 -44.9055,-21.541091 14.93111,47.514051 -26.13092,-42.39927 -13.12718,48.04373 0.94005,-49.79598 -37.01769,33.31988 27.71256,-41.382821 -49.15535,8.017191 45.68653,-19.830905 -45.68653,-19.830901 49.15535,8.017186 -27.71256,-41.382817 37.01769,33.319873 -0.94005,-49.795981 13.12718,48.043736 L 384.73861,18.006728 369.8075,65.52078 414.713,43.979684 376.46411,75.878677 z"
         inkscape:transform-center-x="-3.9779615"
         transform="matrix(0.22605591,0,0,0.22605591,288.32271,62.783322)" />
    </g>
    <g
       id="g4187"
       transform="translate(-16,45)">
      <g
         transform="translate(-44.75,64.5)"
         id="g4089">
        <path
           transform="matrix(1.0728477,0,0,1.1739131,-8.9114237,-26.416244)"
           d="m 132.625,146.86218 c 0,4.76346 -4.22531,8.625 -9.4375,8.625 -5.21219,0 -9.4375,-3.86154 -9.4375,-8.625 0,-4.76345 4.22531,-8.625 9.4375,-8.625 5.21219,0 9.4375,3.86155 9.4375,8.625 z"
           sodipodi:ry="8.625"
           sodipodi:rx="9.4375"
           sodipodi:cy="146.86218"
           sodipodi:cx="123.1875"
           id="path4171"
           style="color:#000000;fill:#0089ba;fill-opacity:1;fill-rule:evenodd;stroke:none;stroke-width:0.94969565;marker:none;visibility:visible;display:inline;overflow:visible;filter:url(#filter4177);enable-background:accumulate"
           sodipodi:type="arc" />
        <path
           sodipodi:type="arc"
           style="color:#000000;fill:#0089ba;fill-opacity:0.562212;fill-rule:evenodd;stroke:#000000;stroke-width:0.94969565;stroke-linecap:butt;stroke-linejoin:miter;stroke-miterlimit:4;stroke-opacity:1;stroke-dasharray:none;stroke-dashoffset:0;marker:none;visibility:visible;display:inline;overflow:visible;enable-background:accumulate"
           id="path4012"
           sodipodi:cx="123.1875"
           sodipodi:cy="146.86218"
           sodipodi:rx="9.4375"
           sodipodi:ry="8.625"
           d="m 132.625,146.86218 c 0,4.76346 -4.22531,8.625 -9.4375,8.625 -5.21219,0 -9.4375,-3.86154 -9.4375,-8.625 0,-4.76345 4.22531,-8.625 9.4375,-8.625 5.21219,0 9.4375,3.86155 9.4375,8.625 z"
           transform="matrix(1.0066225,0,0,1.1014493,-0.75331111,-15.774056)" />
        <path
           sodipodi:type="arc"
           style="color:#000000;fill:#ffffff;fill-opacity:1;fill-rule:evenodd;stroke:none;stroke-width:1;marker:none;visibility:visible;display:inline;overflow:visible;enable-background:accumulate"
           id="path4030"
           sodipodi:cx="121.5625"
           sodipodi:cy="140.17468"
           sodipodi:rx="1.5625"
           sodipodi:ry="1.5625"
           d="m 123.125,140.17468 c 0,0.86295 -0.69956,1.5625 -1.5625,1.5625 -0.86294,0 -1.5625,-0.69955 -1.5625,-1.5625 0,-0.86294 0.69956,-1.5625 1.5625,-1.5625 0.86294,0 1.5625,0.69956 1.5625,1.5625 z"
           transform="matrix(1.3959798,0,0,1.3959798,-50.557867,-54.534517)" />
      </g>
      <path
         inkscape:connector-curvature="0"
         id="path4181"
         d="m 75.969785,219.92072 c 0.04617,-0.15134 -0.134592,-0.1366 -0.176777,-0.22097 -0.08487,-0.16974 -0.0035,-0.0954 -0.08839,-0.26516 -0.0093,-0.0186 -0.03488,-0.0256 -0.04419,-0.0442 -0.126481,-0.25296 0.02746,-0.0279 -0.08839,-0.22097 -0.05465,-0.0911 -0.129269,-0.17015 -0.176776,-0.26516 -0.02083,-0.0417 -0.02336,-0.0909 -0.04419,-0.13259 -0.0053,-0.0105 -0.174986,-0.25979 -0.176777,-0.26516 -0.01398,-0.0419 0.0087,-0.0892 0,-0.13258 -0.02943,-0.14716 -0.06315,-0.0379 -0.132583,-0.17678 -0.01318,-0.0263 0.0071,-0.0598 0,-0.0884 -0.01598,-0.0639 -0.06755,-0.11428 -0.08839,-0.17678 -0.0047,-0.014 0.0047,-0.0302 0,-0.0442 -0.01042,-0.0312 -0.0362,-0.0564 -0.04419,-0.0884 -0.0071,-0.0286 0.0093,-0.0604 0,-0.0884 -0.0066,-0.0198 -0.03761,-0.0244 -0.04419,-0.0442 -0.0067,-0.0202 0,-0.1963 0,-0.22097 0,-0.11785 0,-0.2357 0,-0.35355 0,-0.16205 0,-0.3241 0,-0.48614 0,-0.0442 0,-0.0884 0,-0.13258 0,-0.0442 -0.0087,-0.0892 0,-0.13259 0.0065,-0.0323 0.0362,-0.0564 0.04419,-0.0884 0.0071,-0.0286 -0.0071,-0.0598 0,-0.0884 0.008,-0.032 0.0362,-0.0564 0.04419,-0.0884 0.01429,-0.0572 -0.02635,-0.12407 0,-0.17678 0.01863,-0.0373 0.07291,-0.0497 0.08839,-0.0884 0.01641,-0.041 -0.0087,-0.0892 0,-0.13258 0.0065,-0.0323 0.02946,-0.0589 0.0442,-0.0884 0.01473,-0.0295 0.02592,-0.061 0.04419,-0.0884 0.01156,-0.0173 0.03264,-0.0269 0.04419,-0.0442 0.01827,-0.0274 0.02592,-0.061 0.04419,-0.0884 0.01156,-0.0173 0.02946,-0.0295 0.04419,-0.0442 0.01473,-0.0295 0.02592,-0.061 0.04419,-0.0884 0.01156,-0.0173 0.03264,-0.0269 0.0442,-0.0442 0.01827,-0.0274 0.02592,-0.061 0.04419,-0.0884 0.03399,-0.051 0.09859,-0.0816 0.132582,-0.13258 0.0082,-0.0123 -0.01042,-0.0338 0,-0.0442 0.02329,-0.0233 0.06862,-0.0178 0.08839,-0.0442 0.02795,-0.0373 0.01624,-0.0953 0.04419,-0.13259 0.0032,-0.004 0.162026,-0.0786 0.176776,-0.0884 0.01733,-0.0116 0.02686,-0.0326 0.0442,-0.0442 0.02741,-0.0183 0.06098,-0.0259 0.08839,-0.0442 0.01733,-0.0116 0.02686,-0.0326 0.04419,-0.0442 0.02741,-0.0183 0.05893,-0.0295 0.08839,-0.0442 0.02946,-0.0147 0.05714,-0.0338 0.08839,-0.0442 0.06629,-0.0221 0.04419,0.0442 0.132582,0 0.01318,-0.007 -0.01042,-0.0338 0,-0.0442 0.01308,-0.0131 0.149403,0.0137 0.176777,0 0.01863,-0.009 0.02443,-0.0376 0.04419,-0.0442 0.04696,-0.0157 0.129816,0.0156 0.176777,0 0.03125,-0.0104 0.05643,-0.0362 0.08839,-0.0442 0.02858,-0.007 0.05893,0 0.08839,0 0.03701,0 0.187362,0.008 0.220971,0 0.03196,-0.008 0.05609,-0.0377 0.08839,-0.0442 0.07223,-0.0145 0.147314,0 0.220971,0 0.01473,0 0.0299,0.004 0.04419,0 0.04519,-0.0113 0.0869,-0.0351 0.132582,-0.0442 0.275789,-0.0551 -0.17739,0.0797 0.220971,0 0.0323,-0.006 0.05643,-0.0362 0.08839,-0.0442 0.02858,-0.007 0.05981,0.007 0.08839,0 0.03196,-0.008 0.05893,-0.0295 0.08839,-0.0442 0.0442,-0.0147 0.0869,-0.0351 0.132583,-0.0442 0.02889,-0.006 0.0595,0.006 0.08839,0 0.04568,-0.009 0.08839,-0.0295 0.132583,-0.0442 0.04419,-0.0147 0.08933,-0.0269 0.132582,-0.0442 0.09033,-0.0361 0.178115,-0.0891 0.265165,-0.13258 0.08839,-0.0442 0.176777,-0.0884 0.265165,-0.13258 0.02946,-0.0147 0.06098,-0.0259 0.08839,-0.0442 0.01733,-0.0115 0.02443,-0.0376 0.04419,-0.0442 0.02795,-0.009 0.06044,0.009 0.08839,0 0.02993,-0.01 0.09882,-0.1157 0.132583,-0.13258 0.01318,-0.007 0.03102,0.007 0.04419,0 0.01863,-0.009 0.02686,-0.0326 0.04419,-0.0442 0.320434,-0.16021 -0.06988,0.0466 0.132583,-0.0884 0.02741,-0.0183 0.06098,-0.0259 0.08839,-0.0442 0.03467,-0.0231 0.05112,-0.0697 0.08839,-0.0884 0.01318,-0.007 0.03102,0.007 0.04419,0 0.01863,-0.009 0.02946,-0.0295 0.0442,-0.0442 0.01473,-0.0147 0.03488,-0.0256 0.04419,-0.0442 0.0066,-0.0132 -0.01042,-0.0338 0,-0.0442 0.01042,-0.0104 0.03378,0.0104 0.04419,0 0.09144,-0.0914 -0.139731,0.004 0.04419,-0.0884 0.01318,-0.007 0.03378,0.0104 0.04419,0 0.01042,-0.0104 -0.0066,-0.031 0,-0.0442 0.02652,-0.053 0.106066,-0.0795 0.132583,-0.13259 0.01318,-0.0264 -0.02083,-0.0675 0,-0.0884 0.01042,-0.0104 0.03378,0.0104 0.04419,0 0.01042,-0.0104 -0.0066,-0.031 0,-0.0442 0.0093,-0.0186 0.03488,-0.0256 0.04419,-0.0442 0.01318,-0.0263 -0.01318,-0.062 0,-0.0884 0.0093,-0.0186 0.03488,-0.0256 0.04419,-0.0442 0.0066,-0.0132 -0.01042,-0.0338 0,-0.0442 0.01042,-0.0104 0.03378,0.0104 0.0442,0 0.0221,-0.0221 -0.0221,-0.11048 0,-0.13258 0.01042,-0.0104 0.03378,0.0104 0.04419,0 0.02083,-0.0208 -0.02083,-0.0676 0,-0.0884 0.01042,-0.0104 0.03761,0.0132 0.04419,0 0.01332,-0.0266 -0.01322,-0.20775 0,-0.22097 0.01042,-0.0104 0.03761,0.0132 0.04419,0 0.01318,-0.0264 0,-0.0589 0,-0.0884 0,-0.0295 0,-0.0589 0,-0.0884 0,-0.0305 -0.0067,-0.16334 0,-0.17677 0.0093,-0.0186 0.03761,-0.0244 0.04419,-0.0442 0.0067,-0.0202 0,-0.1963 0,-0.22097 0,-0.13258 0,-0.26516 0,-0.39775 0,-0.02 0.0059,-0.25338 0,-0.26516 -0.0093,-0.0186 -0.03761,-0.0244 -0.04419,-0.0442 -0.0084,-0.0253 0,-0.17948 0,-0.22097 0,-0.0147 0.01042,-0.0338 0,-0.0442 -0.01042,-0.0104 -0.03378,0.0104 -0.04419,0 -0.009,-0.009 0.0088,-0.11506 0,-0.13258 -0.0093,-0.0186 -0.03488,-0.0256 -0.04419,-0.0442 -0.01318,-0.0264 0.01318,-0.062 0,-0.0884 -0.0093,-0.0186 -0.03488,-0.0256 -0.04419,-0.0442 -0.0066,-0.0132 0.0066,-0.031 0,-0.0442 -0.0093,-0.0186 -0.03488,-0.0256 -0.0442,-0.0442 -0.0066,-0.0132 0.0066,-0.031 0,-0.0442 -0.0093,-0.0186 -0.03488,-0.0256 -0.04419,-0.0442 -0.0066,-0.0132 0.0066,-0.031 0,-0.0442 -0.0093,-0.0186 -0.03488,-0.0256 -0.04419,-0.0442 -0.0066,-0.0132 0.0066,-0.031 0,-0.0442 -0.0093,-0.0186 -0.03488,-0.0256 -0.04419,-0.0442 -0.0066,-0.0132 0.01318,-0.0376 0,-0.0442 -0.02635,-0.0132 -0.06044,0.009 -0.08839,0 -0.03953,-0.0132 -0.04886,-0.0752 -0.08839,-0.0884 -0.02795,-0.009 -0.05893,0 -0.08839,0 -0.01473,0 -0.03102,0.007 -0.04419,0 -0.01863,-0.009 -0.02556,-0.0349 -0.0442,-0.0442 -0.02635,-0.0132 -0.06755,0.0208 -0.08839,0 -0.01042,-0.0104 0.01318,-0.0376 0,-0.0442 -0.05271,-0.0264 -0.120875,0.0186 -0.176777,0 -0.01976,-0.007 -0.02556,-0.0349 -0.04419,-0.0442 -0.01318,-0.007 -0.02946,0 -0.04419,0 -0.01473,0 -0.02946,0 -0.04419,0 -0.04451,0 -0.240725,0.008 -0.265165,0 -0.01976,-0.007 -0.02443,-0.0376 -0.04419,-0.0442 -0.04696,-0.0157 -0.129816,0.0156 -0.176777,0 -0.03125,-0.0104 -0.05643,-0.0362 -0.08839,-0.0442 -0.02858,-0.007 -0.06044,0.009 -0.08839,0 -0.01976,-0.007 -0.02556,-0.0349 -0.04419,-0.0442 -0.01318,-0.007 -0.03102,0.007 -0.04419,0 -0.01863,-0.009 -0.02556,-0.0349 -0.04419,-0.0442 -0.01318,-0.007 -0.03378,0.0104 -0.04419,0 -0.01042,-0.0104 0.0066,-0.031 0,-0.0442 -0.0093,-0.0186 -0.02946,-0.0295 -0.04419,-0.0442 -0.02599,-0.026 -0.166544,-0.15631 -0.176776,-0.17678 -0.0066,-0.0132 0.0066,-0.031 0,-0.0442 -0.01863,-0.0373 -0.06528,-0.0537 -0.08839,-0.0884 -0.01473,-0.0295 -0.02946,-0.0589 -0.04419,-0.0884 0,-0.0147 0.0066,-0.031 0,-0.0442 -0.01863,-0.0373 -0.06975,-0.0511 -0.08839,-0.0884 -0.0066,-0.0132 0.0066,-0.031 0,-0.0442 -0.0093,-0.0186 -0.03488,-0.0256 -0.04419,-0.0442 -0.0066,-0.0132 0,-0.0295 0,-0.0442 -0.01473,-0.0147 -0.03488,-0.0256 -0.04419,-0.0442 -0.0066,-0.0132 0,-0.0295 0,-0.0442 0,-0.0147 -0.01473,-0.0442 0,-0.0442 0.01473,0 0,0.0589 0,0.0442 0,-0.0295 0,-0.0589 0,-0.0884 0,-0.0295 -0.0093,-0.0604 0,-0.0884 0.0066,-0.0198 0.03761,-0.0244 0.04419,-0.0442 0.0093,-0.028 0,-0.0589 0,-0.0884 0,-0.0295 0,-0.0589 0,-0.0884 0,-0.0199 0.0067,-0.11913 0,-0.13258 -0.0093,-0.0186 -0.03488,-0.0256 -0.04419,-0.0442 -0.008,-0.016 0,-0.19023 0,-0.22097 0,-0.0147 -0.01042,-0.0338 0,-0.0442 0.01042,-0.0104 0.03378,0.0104 0.04419,0 0.01042,-0.0104 -0.01042,-0.0338 0,-0.0442 0.02083,-0.0208 0.06204,0.0132 0.08839,0 0.01863,-0.009 0.02946,-0.0295 0.04419,-0.0442 0.01473,-0.0147 0.03761,-0.0244 0.04419,-0.0442 0.02795,-0.0396 -0.01398,-0.0906 0,-0.13258 0.125196,-0.25039 -0.01647,0.0659 0.0442,-0.17678 0.07213,-0.28852 0.02373,0.16698 0.08839,-0.22097 0.01816,-0.0721 -0.01211,-0.14831 0,-0.22097 0.01,-0.0599 0.0356,-0.11665 0.04419,-0.17677 0.0063,-0.0437 0,-0.0884 0,-0.13259 0,-0.0442 0,-0.0884 0,-0.13258 0,-0.0295 0.01318,-0.062 0,-0.0884 -0.01109,-0.0222 -0.184928,-0.18493 -0.220971,-0.22097 -0.01473,-0.0147 -0.03488,-0.0256 -0.04419,-0.0442 -0.0066,-0.0132 0,-0.0295 0,-0.0442 0,-0.0295 -0.01634,-0.0639 0,-0.0884 0.01827,-0.0274 0.06204,-0.0244 0.08839,-0.0442 0.03333,-0.025 0.05893,-0.0589 0.08839,-0.0884 0.08513,-0.0851 0.16553,-0.15428 0.220971,-0.26516 0.0066,-0.0132 0,-0.0295 0,-0.0442 0,-0.0295 -0.0093,-0.0604 0,-0.0884 0.0066,-0.0198 0.03488,-0.0256 0.04419,-0.0442 0.0066,-0.0132 0,-0.0295 0,-0.0442 0,-0.0147 0.0066,-0.031 0,-0.0442 -0.0093,-0.0186 -0.03761,-0.0244 -0.04419,-0.0442 -0.0093,-0.028 0,-0.0589 0,-0.0884 0,-0.0147 0.0066,-0.031 0,-0.0442 -0.09196,-0.18393 0.0031,0.0472 -0.08839,-0.0442 -0.01042,-0.0104 0.0066,-0.031 0,-0.0442 -0.09196,-0.18393 0.0031,0.0472 -0.08839,-0.0442 -0.01042,-0.0104 0.01042,-0.0338 0,-0.0442 -0.01042,-0.0104 -0.03378,0.0104 -0.04419,0 -0.01042,-0.0104 0.01318,-0.0376 0,-0.0442 -0.02635,-0.0132 -0.06204,0.0132 -0.08839,0 -0.01318,-0.007 0.01042,-0.0338 0,-0.0442 -0.02083,-0.0208 -0.06755,0.0208 -0.08839,0 -0.01042,-0.0104 0.01042,-0.0338 0,-0.0442 -0.172478,-0.17248 -0.02373,0.0102 -0.132582,-0.0442 -0.01863,-0.009 -0.02556,-0.0349 -0.0442,-0.0442 -0.01318,-0.007 -0.03378,0.0104 -0.04419,0 -0.02329,-0.0233 -0.01679,-0.0701 -0.04419,-0.0884 -0.02452,-0.0163 -0.06204,0.0132 -0.08839,0 -0.01318,-0.007 0.0082,-0.0319 0,-0.0442 -0.02311,-0.0347 -0.05505,-0.0634 -0.08839,-0.0884 -0.0527,-0.0395 -0.124072,-0.0489 -0.176776,-0.0884 -0.0825,-0.0619 -0.138475,-0.1591 -0.220971,-0.22097 -0.02635,-0.0198 -0.06098,-0.0259 -0.08839,-0.0442 -0.03467,-0.0231 -0.05112,-0.0697 -0.08839,-0.0884 -0.01318,-0.007 -0.03022,0.005 -0.04419,0 -0.08027,-0.0268 -0.08202,-0.0378 -0.132583,-0.0884 -0.01473,-0.0147 -0.02686,-0.0326 -0.04419,-0.0442 -0.05482,-0.0365 -0.124072,-0.0489 -0.176777,-0.0884 -0.06667,-0.05 -0.11011,-0.12677 -0.176776,-0.17677 -0.214045,-0.16054 0.0026,0.0468 -0.132583,-0.0884 -0.05893,-0.0589 -0.117851,-0.11785 -0.176776,-0.17678 -0.01473,-0.0147 -0.02686,-0.0326 -0.04419,-0.0442 -0.02741,-0.0183 -0.06098,-0.0259 -0.08839,-0.0442 -0.01733,-0.0115 -0.02556,-0.0349 -0.04419,-0.0442 -0.01318,-0.007 -0.02946,0 -0.04419,0 -0.02946,-0.0147 -0.06098,-0.0259 -0.08839,-0.0442 -0.101129,-0.0674 0.02764,-0.035 -0.132582,-0.0884 -0.01398,-0.005 -0.03102,0.007 -0.04419,0 -0.01863,-0.009 -0.02443,-0.0376 -0.0442,-0.0442 -0.02795,-0.009 -0.06044,0.009 -0.08839,0 -0.01976,-0.007 -0.02686,-0.0326 -0.04419,-0.0442 -0.02741,-0.0183 -0.05714,-0.0338 -0.08839,-0.0442 -0.02795,-0.009 -0.06204,0.0132 -0.08839,0 -0.01863,-0.009 -0.02556,-0.0349 -0.04419,-0.0442 -0.01318,-0.007 -0.03102,0.007 -0.04419,0 -0.01863,-0.009 -0.02556,-0.0349 -0.04419,-0.0442 -0.02635,-0.0132 -0.06204,0.0132 -0.08839,0 -0.03727,-0.0186 -0.05112,-0.0698 -0.08839,-0.0884 -0.01318,-0.007 -0.03102,0.007 -0.04419,0 -0.03727,-0.0186 -0.05372,-0.0653 -0.08839,-0.0884 -0.02741,-0.0183 -0.06098,-0.0259 -0.08839,-0.0442 -0.01733,-0.0116 -0.02443,-0.0376 -0.04419,-0.0442 -0.0559,-0.0186 -0.124072,0.0263 -0.176777,0 -0.01318,-0.007 0.0066,-0.031 0,-0.0442 -0.0093,-0.0186 -0.02946,-0.0295 -0.04419,-0.0442 -0.01473,-0.0147 -0.02443,-0.0376 -0.04419,-0.0442 -0.02795,-0.009 -0.06044,0.009 -0.08839,0 -0.01977,-0.007 -0.02686,-0.0326 -0.0442,-0.0442 -0.02741,-0.0183 -0.06098,-0.0259 -0.08839,-0.0442 -0.03467,-0.0231 -0.05112,-0.0697 -0.08839,-0.0884 -0.01318,-0.007 -0.03378,0.0104 -0.04419,0 -0.01042,-0.0104 0.0066,-0.031 0,-0.0442 -0.05461,-0.10922 -0.0442,0.0153 -0.0442,-0.0884"
         style="fill:none;stroke:#ffffff;stroke-width:1px;stroke-linecap:butt;stroke-linejoin:miter;stroke-opacity:1" />
      <path
         inkscape:connector-curvature="0"
         id="path4183"
         d="m 80.345008,209.75606 c -0.02946,-0.0589 -0.147314,-0.14731 -0.08839,-0.17677 0.05893,-0.0295 0.02946,0.20624 0.08839,0.17677 0.06588,-0.0329 -0.02736,-0.15258 0,-0.22097 0.01094,-0.0273 0.06044,0.009 0.08839,0 0.01976,-0.007 0.02686,-0.0326 0.04419,-0.0442 0.02741,-0.0183 0.05893,-0.0295 0.08839,-0.0442 0.02946,-0.0147 0.0578,-0.032 0.08839,-0.0442 0.259549,-0.10382 0.0053,-8.9e-4 0.265165,-0.0442 0.04595,-0.008 0.08839,-0.0295 0.132583,-0.0442 0.04419,-0.0147 0.08933,-0.0269 0.132583,-0.0442 0.03058,-0.0122 0.0578,-0.032 0.08839,-0.0442 0.04325,-0.0173 0.09092,-0.0234 0.132582,-0.0442 0.04751,-0.0238 0.08508,-0.0646 0.132583,-0.0884 0.04167,-0.0208 0.09092,-0.0234 0.132582,-0.0442 0.04751,-0.0238 0.08704,-0.0611 0.132583,-0.0884 0.02825,-0.0169 0.06267,-0.0236 0.08839,-0.0442 0.122776,-0.0982 0.168021,-0.18446 0.265165,-0.30936 0.05791,-0.0745 0.124454,-0.14248 0.176777,-0.22097 0.07176,-0.10764 0.163708,-0.35544 0.176777,-0.48613 0.0088,-0.088 0,-0.17678 0,-0.26517 0,-0.2357 0,-0.4714 0,-0.7071 0,-0.0442 0,-0.0884 0,-0.13259 0,-0.0147 -0.01042,-0.0338 0,-0.0442 0.01042,-0.0104 0.03378,0.0104 0.04419,0 0.02083,-0.0208 -0.01318,-0.062 0,-0.0884 0.0093,-0.0186 0.02946,-0.0295 0.04419,-0.0442 0,-0.0295 -0.0093,-0.0604 0,-0.0884 0.0066,-0.0198 0.03761,-0.0244 0.04419,-0.0442 0.0093,-0.028 0,-0.0589 0,-0.0884 0,-0.0295 0,-0.0589 0,-0.0884 0,-0.14732 0,-0.29463 0,-0.44194 0,-0.11786 0,-0.23571 0,-0.35356 0,-0.0147 0,-0.0295 0,-0.0442 0,-0.0147 -0.01042,-0.0338 0,-0.0442 0.01042,-0.0104 0.02946,0 0.04419,0 0.02946,0 0.05893,0 0.08839,0 0.101129,0 0.113948,-0.009 0.220971,0.0442 0.04751,0.0237 0.08508,0.0646 0.132582,0.0884 0.08913,0.0446 0.14374,0.0305 0.220971,0.0884 0.03333,0.025 0.05505,0.0634 0.08839,0.0884 0.154416,0.11581 0.01996,-0.008 0.176777,0.0442 0.01976,0.007 0.02556,0.0349 0.04419,0.0442 0.0066,0.003 0.167073,0.003 0.176777,0 0.03125,-0.0104 0.05643,-0.0362 0.08839,-0.0442 0.02858,-0.007 0.05981,0.007 0.08839,0 0.03196,-0.008 0.05893,-0.0295 0.08839,-0.0442 0.08705,-0.0435 0.174836,-0.0965 0.265165,-0.13258 0.137297,-0.0549 0.172062,-0.0335 0.309359,-0.0884 0.06117,-0.0245 0.114277,-0.0675 0.176777,-0.0884 0.02795,-0.009 0.06044,0.009 0.08839,0 0.320117,-0.1067 -0.06968,0.0127 0.132583,-0.0884 0.01318,-0.007 0.03022,0.005 0.04419,0 0.03125,-0.0104 0.05714,-0.0338 0.08839,-0.0442 0.04193,-0.014 0.08971,0.0107 0.132583,0 0.03196,-0.008 0.05714,-0.0338 0.08839,-0.0442 0.01398,-0.005 0.03022,0.005 0.04419,0 0.03125,-0.0104 0.05643,-0.0362 0.08839,-0.0442 0.02858,-0.007 0.06044,0.009 0.08839,0 0.01976,-0.007 0.02686,-0.0326 0.04419,-0.0442 0.02741,-0.0183 0.05893,-0.0295 0.08839,-0.0442 0.207286,-0.10364 -0.05208,0.0208 0.22097,-0.0884 0.06117,-0.0245 0.117852,-0.0589 0.176777,-0.0884 0.02946,-0.0147 0.06204,-0.0244 0.08839,-0.0442 0.03333,-0.025 0.05266,-0.0669 0.08839,-0.0884 0.03995,-0.024 0.09264,-0.0202 0.132582,-0.0442 0.03573,-0.0214 0.05893,-0.0589 0.08839,-0.0884 0.01473,-0.0147 0.03169,-0.0275 0.04419,-0.0442 0.06374,-0.085 0.117851,-0.17678 0.176777,-0.26517 0.05893,-0.0884 0.122122,-0.17407 0.176776,-0.26516 0.01695,-0.0282 0.02725,-0.0601 0.04419,-0.0884 0.02733,-0.0455 0.06106,-0.087 0.08839,-0.13258 0.01695,-0.0283 0.02725,-0.0601 0.04419,-0.0884 0.02733,-0.0455 0.06464,-0.0851 0.08839,-0.13258 0.02083,-0.0417 0.02689,-0.0893 0.0442,-0.13259 0.02447,-0.0612 0.07241,-0.11286 0.08839,-0.17677 0.0071,-0.0286 -0.0058,-0.0595 0,-0.0884 0.0091,-0.0457 0.03506,-0.0869 0.04419,-0.13258 0.0058,-0.0289 0,-0.0589 0,-0.0884 0,-0.0737 0,-0.14732 0,-0.22097 0,-0.20624 0,-0.41248 0,-0.61872 0,-0.16205 0,-0.32409 0,-0.48614 0,-0.0147 0,-0.0295 0,-0.0442 0,-0.0147 0.01042,-0.0338 0,-0.0442 -0.02329,-0.0233 -0.0651,-0.0209 -0.08839,-0.0442 -0.02329,-0.0233 -0.0209,-0.0651 -0.04419,-0.0884 -0.01042,-0.0104 -0.03102,0.007 -0.0442,0 -0.01863,-0.009 -0.02556,-0.0349 -0.04419,-0.0442 -0.01318,-0.007 -0.03102,0.007 -0.04419,0 -0.01863,-0.009 -0.02556,-0.0349 -0.04419,-0.0442 -0.02635,-0.0132 -0.06204,0.0132 -0.08839,0 -0.01863,-0.009 -0.02556,-0.0349 -0.04419,-0.0442 -0.01318,-0.007 -0.03022,0.005 -0.04419,0 -0.03125,-0.0104 -0.05643,-0.0362 -0.08839,-0.0442 -0.02858,-0.007 -0.06204,0.0132 -0.08839,0 -0.01318,-0.007 0.01042,-0.0338 0,-0.0442 -0.01042,-0.0104 -0.03102,0.007 -0.04419,0 -0.01863,-0.009 -0.02556,-0.0349 -0.04419,-0.0442 -0.01318,-0.007 -0.03102,0.007 -0.04419,0 -0.01863,-0.009 -0.02686,-0.0326 -0.04419,-0.0442 -0.02226,-0.0974 -0.09092,-0.0234 -0.132583,-0.0442 -0.01863,-0.009 -0.02556,-0.0349 -0.04419,-0.0442 -0.01318,-0.007 -0.03102,0.007 -0.04419,0 -0.01863,-0.009 -0.02556,-0.0349 -0.04419,-0.0442 -0.02635,-0.0132 -0.06204,0.0132 -0.08839,0 -0.01863,-0.009 -0.02443,-0.0376 -0.04419,-0.0442 -0.0224,-0.007 -0.273231,0 -0.309359,0 -0.05068,0 -0.130996,-0.0114 -0.176777,0 -0.03196,0.008 -0.05714,0.0338 -0.08839,0.0442 -0.01398,0.005 -0.03102,-0.007 -0.04419,0 -0.01863,0.009 -0.02556,0.0349 -0.04419,0.0442 -0.02635,0.0132 -0.06204,-0.0132 -0.08839,0 -0.01863,0.009 -0.02443,0.0376 -0.04419,0.0442 -0.02795,0.009 -0.05893,0 -0.08839,0 -0.01473,0 -0.03102,-0.007 -0.04419,0 -0.01863,0.009 -0.02556,0.0349 -0.0442,0.0442 -0.01318,0.007 -0.02946,0 -0.04419,0 -0.02946,0 -0.0598,-0.007 -0.08839,0 -0.03196,0.008 -0.05714,0.0338 -0.08839,0.0442 -0.01397,0.005 -0.02946,0 -0.04419,0 -0.02946,0 -0.06044,-0.009 -0.08839,0 -0.01976,0.007 -0.02443,0.0376 -0.04419,0.0442 -0.0559,0.0186 -0.124072,-0.0264 -0.176777,0 -0.01318,0.007 0.01318,0.0376 0,0.0442 -0.02635,0.0132 -0.06204,-0.0132 -0.08839,0 -0.01318,0.007 0,0.0295 0,0.0442 -0.02946,0 -0.06044,-0.009 -0.08839,0 -0.01976,0.007 -0.02686,0.0326 -0.04419,0.0442 -0.02741,0.0183 -0.06098,0.0259 -0.08839,0.0442 -0.01734,0.0115 -0.02556,0.0349 -0.04419,0.0442 -0.01318,0.007 -0.03102,-0.007 -0.04419,0 -0.01863,0.009 -0.02686,0.0326 -0.04419,0.0442 -0.02741,0.0183 -0.06098,0.0259 -0.08839,0.0442 -0.01733,0.0116 -0.02556,0.0349 -0.04419,0.0442 -0.01318,0.007 -0.03102,-0.007 -0.04419,0 -0.03727,0.0186 -0.05112,0.0698 -0.08839,0.0884 -0.01318,0.007 -0.02946,0 -0.04419,0 -0.02946,0 -0.06044,-0.009 -0.08839,0 -0.01976,0.007 -0.02946,0.0295 -0.04419,0.0442 -0.0442,0 -0.08971,-0.0107 -0.132583,0 -0.02021,0.005 -0.02398,0.0391 -0.04419,0.0442 -0.04288,0.0107 -0.08839,0 -0.132583,0 -0.04419,0 -0.08839,0 -0.132582,0 -0.117851,0 -0.235702,0 -0.353554,0"
         style="fill:none;stroke:#ffffff;stroke-width:1px;stroke-linecap:butt;stroke-linejoin:miter;stroke-opacity:1" />
      <path
         inkscape:connector-curvature="0"
         id="path4185"
         d="m 70.357125,215.05936 c 0.04075,-0.1067 0.598399,-0.24484 0.707107,-0.35355 0.04658,-0.0466 0.05184,-0.12196 0.08839,-0.17678 0.06934,-0.104 0.190165,-0.16516 0.265165,-0.26516 0.03953,-0.0527 0.05449,-0.12029 0.08839,-0.17678 0.140959,-0.23493 0.219926,-0.25889 0.265165,-0.53033 0.01453,-0.0872 0,-0.17677 0,-0.26516 0,-0.11785 0,-0.23571 0,-0.35356 0,-0.11785 0.01667,-0.23688 0,-0.35355 -0.01318,-0.0922 -0.05893,-0.17678 -0.08839,-0.26516 -0.02946,-0.0884 -0.05893,-0.17678 -0.08839,-0.26517 -0.05893,-0.17678 -0.09344,-0.36366 -0.176777,-0.53033 -0.03342,-0.0668 -0.320376,-0.44929 -0.441942,-0.53033 -0.02451,-0.0163 -0.06755,0.0208 -0.08839,0 -0.02083,-0.0208 0,-0.0589 0,-0.0884 0,-0.0919 0.01738,-0.4608 0,-0.53033 -0.01598,-0.0639 -0.07547,-0.11217 -0.08839,-0.17678 -0.01733,-0.0867 0,-0.17677 0,-0.26516 0,-0.2357 0,-0.4714 0,-0.70711 0,-0.0884 0,-0.17677 0,-0.26516 0,-0.0295 -0.02946,-0.0884 0,-0.0884 0.109221,0 0.336294,0.12395 0.441941,0.17678 0.05893,0.0295 0.117851,0.0589 0.176777,0.0884 0.05893,0.0295 0.124072,0.0489 0.176777,0.0884 0.1,0.075 0.161158,0.19583 0.265165,0.26517 0.05482,0.0365 0.130192,0.0418 0.176776,0.0884 0.02083,0.0208 -0.02635,0.0752 0,0.0884 0.05271,0.0264 0.124073,-0.0263 0.176777,0 0.02635,0.0132 0.02946,0.0884 0,0.0884 -0.04167,0 -0.05112,-0.0697 -0.08839,-0.0884 -0.02635,-0.0132 -0.117851,0 -0.08839,0 0.05893,0 0.176777,-0.0589 0.176777,0 0,0.0589 -0.235702,0 -0.176777,0 0.117852,0 0.235703,0 0.353554,0 0.02946,0 0.06204,-0.0132 0.08839,0 0.03727,0.0186 0.05112,0.0698 0.08839,0.0884 0.0269,0.0135 0.225358,0 0.265165,0 0.206239,0 0.412479,0 0.618718,0 0.06148,0 0.409978,0.016 0.441942,0 0.03727,-0.0186 0.05112,-0.0697 0.08839,-0.0884 0.03504,-0.0175 0.247095,0.0181 0.265165,0 0.02083,-0.0208 -0.02083,-0.0675 0,-0.0884 0.02083,-0.0208 0.05893,0 0.08839,0 0.02946,0 0.05892,0 0.08839,0"
         style="fill:none;stroke:#ffffff;stroke-width:1px;stroke-linecap:butt;stroke-linejoin:miter;stroke-opacity:1" />
    </g>
    <rect
       style="color:#000000;fill:url(#linearGradient4200);fill-opacity:1;fill-rule:evenodd;stroke:none;stroke-width:1;marker:none;visibility:visible;display:inline;overflow:visible;enable-background:accumulate"
       id="rect4196"
       width="13.435029"
       height="16.672623"
       x="153.61374"
       y="182.11801" />
    <rect
       y="182.11801"
       x="76.1353"
       height="16.672623"
       width="13.435029"
       id="rect4198"
       style="color:#000000;fill:url(#linearGradient4202);fill-opacity:1;fill-rule:evenodd;stroke:none;stroke-width:1;marker:none;visibility:visible;display:inline;overflow:visible;enable-background:accumulate" />
    <g
       id="g4218"
       transform="translate(-186,127)">
      <rect
         ry="6.7175145"
         y="126.90632"
         x="-407.33862"
         height="24.395187"
         width="46.315479"
         id="rect4214"
         style="color:#000000;fill:#4d4d4d;fill-opacity:1;fill-rule:evenodd;stroke:#4d4d4d;stroke-width:2;stroke-opacity:1;marker:none;visibility:visible;display:inline;overflow:visible;enable-background:accumulate"
         inkscape:transform-center-x="-12.078869"
         rx="6.7175145"
         transform="matrix(-0.5,-0.8660254,0.8660254,-0.5,0,0)"
         inkscape:transform-center-y="20.92121" />
      <rect
         rx="6.7175145"
         ry="6.7175145"
         y="230.35054"
         x="253.49779"
         height="24.395187"
         width="46.315479"
         id="rect4210"
         style="color:#000000;fill:#808080;fill-opacity:1;fill-rule:evenodd;stroke:#4d4d4d;stroke-width:2;stroke-opacity:1;marker:none;visibility:visible;display:inline;overflow:visible;enable-background:accumulate" />
      <rect
         inkscape:transform-center-y="-20.921219"
         transform="matrix(-0.5,0.8660254,-0.8660254,-0.5,0,0)"
         rx="6.7175145"
         inkscape:transform-center-x="-12.078866"
         style="color:#000000;fill:#626262;fill-opacity:1;fill-rule:evenodd;stroke:#4d4d4d;stroke-width:2;stroke-opacity:1;marker:none;visibility:visible;display:inline;overflow:visible;enable-background:accumulate"
         id="rect4212"
         width="46.315479"
         height="24.395187"
         x="13.89628"
         y="-393.38809"
         ry="6.7175145" />
      <path
         transform="translate(-0.70710678,-1.0606602)"
         d="m 314.66252,243.78558 a 12.727922,12.727922 0 1 1 -25.45584,0 12.727922,12.727922 0 1 1 25.45584,0 z"
         sodipodi:ry="12.727922"
         sodipodi:rx="12.727922"
         sodipodi:cy="243.78558"
         sodipodi:cx="301.9346"
         id="path4216"
         style="color:#000000;fill:#626262;fill-opacity:1;fill-rule:evenodd;stroke:#4d4d4d;stroke-width:1;stroke-linecap:butt;stroke-linejoin:miter;stroke-miterlimit:4;stroke-opacity:1;stroke-dasharray:none;stroke-dashoffset:0;marker:none;visibility:visible;display:inline;overflow:visible;enable-background:accumulate"
         sodipodi:type="arc" />
      <path
         style="color:#000000;fill:none;stroke:#000000;stroke-width:2;stroke-opacity:1;marker:none;visibility:visible;display:inline;overflow:visible;enable-background:accumulate"
         d="m 314.59375,199 c -2.1494,0.15025 -4.18078,1.32943 -5.34375,3.34375 l -16.15625,28 -32.875,0 c -3.7215,0 -6.71875,2.99725 -6.71875,6.71875 l 0,10.96875 c 0,3.7215 2.99725,6.71875 6.71875,6.71875 l 32.875,0 c 0.17984,0 0.35505,-0.0175 0.53125,-0.0312 0.0524,0.10232 0.0981,0.21178 0.15625,0.3125 l 16.4375,28.4687 c 1.86075,3.22292 5.96458,4.3295 9.1875,2.46875 l 9.46875,-5.5 c 3.22292,-1.86075 4.3295,-5.93333 2.46875,-9.15625 l -16.4375,-28.5 c -0.1386,-0.24006 -0.30667,-0.44013 -0.46875,-0.65625 l 15.9375,-27.625 c 1.86075,-3.22292 0.75417,-7.2955 -2.46875,-9.15625 l -9.46875,-5.5 c -1.20859,-0.69778 -2.55411,-0.96515 -3.84375,-0.875 z"
         id="rect4239"
         inkscape:connector-curvature="0" />
      <path
         style="opacity:0.25;color:#000000;fill:#000000;stroke:none;stroke-width:1;marker:none;visibility:visible;display:inline;overflow:visible;enable-background:accumulate"
         d="m 253.75,246.48718 c 1.125,2.75 -0.25,2.5 3,3.5 3.25,1 33.875,-0.375 33.875,-0.375 l 3.625,4.125 c 0,0 2.25,1 0,1 -2.25,0 -36,0.375 -37.125,-0.125 -1.125,-0.5 -3.5,-3.875 -3.625,-5.625 -0.125,-1.75 0.25,-2.5 0.25,-2.5 z"
         id="path4248"
         inkscape:connector-curvature="0" />
      <path
         style="opacity:0.25;color:#000000;fill:#000000;fill-opacity:1;fill-rule:evenodd;stroke:none;stroke-width:1;marker:none;visibility:visible;display:inline;overflow:visible;enable-background:accumulate"
         d="m 311.75,234.48718 c 1.875,-2.875 14.5,-21.5 14.75,-24 0.25,-2.5 -1.25,-6.375 -1.25,-6.375 0,0 5.125,2.125 5,3.125 -0.125,1 0.875,5.375 0.25,6.25 -0.625,0.875 -16.125,28.25 -16.125,28.25 0,0 -0.375,0.875 -0.625,0.375 -0.25,-0.5 -0.125,1.125 -0.375,-1.5 -0.25,-2.625 -1.625,-6.125 -1.625,-6.125 z"
         id="path4250"
         inkscape:connector-curvature="0" />
      <path
         style="opacity:0.25;color:#000000;fill:#000000;fill-opacity:1;fill-rule:evenodd;stroke:none;stroke-width:1;marker:none;visibility:visible;display:inline;overflow:visible;enable-background:accumulate"
         d="m 310.41988,282.76484 c 6.18718,0.88388 10.42982,-1.76777 11.49048,-2.82843 1.06066,-1.06066 1.23744,-2.74004 0.0884,-5.3033 -1.14905,-2.56326 -8.75045,-18.11961 -9.63433,-19.44544 -0.88388,-1.32582 -2.74004,-2.82842 -2.2981,-3.71231 0.44195,-0.88388 3.18198,-5.56846 3.27037,-6.36396 0.0884,-0.79549 0.61872,-2.74004 0.61872,-2.74004 l 3.62392,4.77297 14.76086,26.16296 -1.23744,5.39168 -14.23052,8.3969 -4.24264,-0.53033 z"
         id="path4252"
         inkscape:connector-curvature="0" />
    </g>
    <g
       id="g4338"
       transform="translate(-13,-77)">
      <path
         inkscape:connector-curvature="0"
         id="path4299"
         d="m 277.73278,419.35484 c 1.79097,7.82462 8.1284,13.43919 15.58558,14.67486 3.90029,7.66019 12.63566,11.99258 21.3954,9.98746 6.93013,-1.58631 12.12118,-6.73224 14.07519,-13.07051 10.30536,-2.38944 16.74098,-12.6697 14.37905,-22.98873 -2.36605,-10.33695 -12.66369,-16.79858 -23.00042,-14.43251 -1.2059,0.27605 -2.37028,0.64899 -3.46286,1.12842 -0.0807,-0.68093 -0.17309,-1.36746 -0.32956,-2.05098 -2.36602,-10.33695 -12.66365,-16.7986 -23.00038,-14.43251 -10.33673,2.36609 -16.79825,12.66395 -14.43219,23.00089 0.29574,1.29211 0.7081,2.5287 1.23632,3.69005 -2.61173,4.16235 -3.62917,9.32507 -2.44613,14.49356 z"
         style="color:#000000;fill:#008000;fill-opacity:1;fill-rule:evenodd;stroke:#002b00;stroke-width:1;marker:none;visibility:visible;display:inline;overflow:visible;enable-background:accumulate" />
      <path
         inkscape:connector-curvature="0"
         id="path4295"
         d="m 323.25,309.625 c -10.86656,0 -19.90146,7.86231 -21.6875,18.21875 -2.28868,-0.8067 -4.74783,-1.21875 -7.3125,-1.21875 -12.15026,0 -22,9.84974 -22,22 0,4.38226 1.2916,8.44545 3.5,11.875 -5.74464,3.96939 -9.5,10.61399 -9.5,18.125 0,12.15026 9.84974,22 22,22 2.38173,0 4.66443,-0.39366 6.8125,-1.09375 2.58268,9.27877 11.08548,16.09375 21.1875,16.09375 6.96404,0 13.1564,-3.26243 17.1875,-8.3125 2.95389,1.47434 6.28671,2.3125 9.8125,2.3125 4.04494,0 7.83728,-1.09527 11.09375,-3 12.10666,-0.0511 21.90625,-9.88135 21.90625,-22 0,-3.51711 -0.8137,-6.86402 -2.28125,-9.8125 5.04639,-4.03124 8.28125,-10.22641 8.28125,-17.1875 0,-12.15026 -9.84974,-22 -22,-22 -0.0527,0 -0.10364,-3.7e-4 -0.15625,0 -2.59571,-7.74707 -9.3694,-13.57645 -17.65625,-14.78125 C 338.66717,314.14217 331.48705,309.625 323.25,309.625 z"
         style="color:#000000;fill:#008000;fill-opacity:1;fill-rule:evenodd;stroke:#005500;stroke-width:1;marker:none;visibility:visible;display:inline;overflow:visible;enable-background:accumulate" />
      <path
         id="path4333"
         d="m 323.25,309.625 c -10.86656,0 -19.90146,7.86231 -21.6875,18.21875 -2.28868,-0.8067 -4.74783,-1.21875 -7.3125,-1.21875 -12.15026,0 -22,9.84974 -22,22 0,4.38226 1.2916,8.44545 3.5,11.875 -5.74464,3.96939 -9.5,10.61399 -9.5,18.125 0,8.65999 5.00728,16.1607 12.28125,19.75 0.073,0.93142 0.19156,1.84329 0.40625,2.78125 0.29574,1.29211 0.72178,2.5574 1.25,3.71875 -2.61173,4.16235 -3.65179,9.30026 -2.46875,14.46875 1.79097,7.82462 8.13657,13.45183 15.59375,14.6875 3.90029,7.66019 12.64651,12.00512 21.40625,10 6.93013,-1.58631 12.10849,-6.75548 14.0625,-13.09375 9.74493,-2.2595 16.02994,-11.58059 14.6875,-21.3125 3.96221,-0.039 7.67779,-1.12993 10.875,-3 12.10666,-0.0511 21.90625,-9.88135 21.90625,-22 0,-3.51711 -0.8137,-6.86402 -2.28125,-9.8125 5.04639,-4.03124 8.28125,-10.22641 8.28125,-17.1875 0,-12.15026 -9.84974,-22 -22,-22 -0.0527,0 -0.10364,-3.7e-4 -0.15625,0 -2.59571,-7.74707 -9.3694,-13.57645 -17.65625,-14.78125 C 338.66717,314.14217 331.48705,309.625 323.25,309.625 z"
         style="color:#000000;fill:none;stroke:#000000;stroke-width:2;marker:none;visibility:visible;display:inline;overflow:visible;enable-background:accumulate"
         inkscape:connector-curvature="0" />
    </g>
    <path
       sodipodi:type="star"
       style="color:#000000;fill:#005500;stroke:#003100;stroke-width:3.03628278;stroke-linecap:round;stroke-linejoin:round;stroke-miterlimit:4;stroke-opacity:1;stroke-dasharray:none;stroke-dashoffset:0;marker:none;visibility:visible;display:inline;overflow:visible;enable-background:accumulate;fill-opacity:1;fill-rule:nonzero"
       id="path4343"
       sodipodi:sides="8"
       sodipodi:cx="515"
       sodipodi:cy="319.36218"
       sodipodi:r1="25.942244"
       sodipodi:r2="12.323268"
       sodipodi:arg1="0.52359878"
       sodipodi:arg2="0.87069676"
       inkscape:flatsided="false"
       inkscape:rounded="0"
       inkscape:randomized="0.08"
       d="m 536.18623,331.5784 -11.77721,-3.44961 -0.85747,17.35512 -10.24935,-15.77675 -12.00092,10.70666 5.11126,-14.96363 -16.43588,2.33555 10.79254,-9.66367 -10.01696,-11.40198 15.92797,3.44962 0.86167,-17.45614 9.40203,13.21869 12.84404,-8.04758 -5.10699,15.3222 16.43155,0.99704 -14.9391,5.4119 z"
       inkscape:transform-center-x="-0.23109683"
       inkscape:transform-center-y="0.11574916"
       transform="matrix(0.65850114,0,0,0.65889927,95.32647,99.84481)" />
    <g
       id="g4390">
      <path
         d="m 475,239.1875 c -0.81342,0 -1.49544,0.41856 -2.0625,0.9375 -0.41533,-0.20187 -0.80375,-0.5 -1.28125,-0.5 -0.98853,0 -1.85733,0.5229 -2.46875,1.25 -0.4781,0.56855 -0.71741,1.3394 -0.90625,2.125 -1.99181,0.53484 -3.5,2.29024 -3.5,4.46875 0,1.83319 1.10858,3.37117 2.625,4.15625 0.139,0.25937 0.34955,0.46145 0.53125,0.6875 l -6.40625,-2.125 a 0.92941696,0.92941696 0 0 0 -0.875,1.59375 l 9.53125,7.78125 -10.75,6.34375 a 0.92941696,0.92941696 0 0 0 0.5625,1.75 l 10.21875,-1.125 -1.40625,8.53125 a 0.92941696,0.92941696 0 0 0 1.59375,0.78125 l 8,-8.4375 3.90625,9.71875 a 0.93227712,0.93227712 0 0 0 1.8125,-0.4375 l -1.21875,-12.5 11.15625,3.78125 a 0.92941696,0.92941696 0 0 0 0.84375,-1.625 l -9.4375,-6.78125 10.1875,-6.65625 a 0.92941696,0.92941696 0 0 0 -0.71875,-1.6875 l -12.0625,3 3.90625,-11.28125 A 0.92941696,0.92941696 0 0 0 485.21875,242 l -5.59375,6.25 c 0.0284,-0.24174 0.15625,-0.43581 0.15625,-0.6875 0,-1.28567 -0.43377,-2.42461 -1.125,-3.3125 -0.003,-0.1037 0,-0.25066 0,-0.3125 0,-1.22772 -0.34841,-2.34563 -0.96875,-3.21875 -0.62034,-0.87312 -1.58063,-1.53125 -2.6875,-1.53125 z"
         id="path4388"
         style="color:#000000;fill:#005500;fill-opacity:1;stroke:#003100;stroke-width:2;stroke-linecap:round;stroke-linejoin:round;stroke-miterlimit:4;stroke-opacity:1;stroke-dasharray:none;stroke-dashoffset:0;marker:none;visibility:visible;display:inline;overflow:visible;enable-background:accumulate"
         inkscape:original="M 475 240.125 C 474.2796 240.125 473.64493 240.52427 473.15625 241.15625 C 472.7336 240.78507 472.19328 240.5625 471.65625 240.5625 C 470.30361 240.5625 469.19062 241.92576 468.96875 243.71875 C 467.14199 243.95674 465.71875 245.53384 465.71875 247.46875 C 465.71875 249.06816 466.69611 250.43904 468.0625 251 C 468.54961 252.06267 469.37258 252.78125 470.34375 252.78125 C 470.69676 252.78125 471.03393 252.66904 471.34375 252.5 C 471.79903 253.69083 472.71412 254.51586 473.75 254.53125 L 473.8125 255.25 L 461.25 251.0625 L 471.8125 259.6875 L 459.90625 266.71875 L 471.34375 265.46875 L 469.71875 275.21875 L 478.75 265.71875 L 483.1875 276.78125 L 481.8125 262.84375 L 494.375 267.09375 L 483.84375 259.53125 L 495.15625 252.125 L 481.4375 255.53125 L 485.90625 242.625 L 477.46875 252.0625 L 477.3125 250.9375 C 478.21816 250.32543 478.84375 249.06378 478.84375 247.5625 C 478.84375 246.29073 478.40941 245.15867 477.71875 244.46875 C 477.73725 244.29038 477.71875 244.12298 477.71875 243.9375 C 477.71875 241.83843 476.51137 240.125 475 240.125 z "
         inkscape:radius="0.92932403"
         sodipodi:type="inkscape:offset" />
      <path
         sodipodi:type="star"
         style="color:#000000;fill:#008000;stroke:#008000;stroke-width:1.85361755;stroke-linecap:butt;stroke-linejoin:miter;stroke-miterlimit:4;stroke-opacity:1;stroke-dasharray:none;stroke-dashoffset:0;marker:none;visibility:visible;display:inline;overflow:visible;enable-background:accumulate"
         id="path4345"
         sodipodi:sides="8"
         sodipodi:cx="515"
         sodipodi:cy="319.36218"
         sodipodi:r1="31.686119"
         sodipodi:r2="12.323268"
         sodipodi:arg1="0.42175566"
         sodipodi:arg2="0.76885364"
         inkscape:flatsided="false"
         inkscape:rounded="0"
         inkscape:randomized="0.08"
         d="m 545.32662,333.41353 -22.49267,-7.59191 2.4798,24.97096 -7.94542,-19.81661 -16.19407,17.00204 2.92162,-17.44639 -20.49022,2.24456 21.33611,-12.57152 -18.938,-15.41399 22.49781,7.46853 -2.4798,-24.97096 6.91562,21.63856 17.21866,-19.26196 -7.99132,23.07752 24.53011,-6.05374 -20.22273,13.24865 z"
         inkscape:transform-center-x="-0.18927527"
         inkscape:transform-center-y="0.094800995"
         transform="matrix(0.5393145,0,0,0.53965674,199.6845,86.867457)" />
      <rect
         transform="matrix(0.95746345,-0.28855457,0.1438377,0.98960129,0,0)"
         ry="1.255645"
         rx="1.2367357"
         y="377.00577"
         x="438.32159"
         height="16.26066"
         width="2.761018"
         id="rect4360"
         style="color:#000000;fill:#008000;fill-opacity:1;fill-rule:nonzero;stroke:#005500;stroke-width:1.00553966;stroke-linecap:butt;stroke-linejoin:miter;stroke-miterlimit:4;stroke-opacity:1;stroke-dasharray:none;stroke-dashoffset:0;marker:none;visibility:visible;display:inline;overflow:visible;enable-background:accumulate" />
      <path
         inkscape:connector-curvature="0"
         id="path4349"
         d="m 475.0099,240.11351 c -0.7204,0 -1.37727,0.39927 -1.86595,1.03125 -0.42265,-0.37118 -0.9373,-0.59375 -1.47433,-0.59375 -1.51138,0 -2.74134,1.71343 -2.74134,3.8125 0,0.43488 0.0875,0.82958 0.18429,1.21875 -0.89064,0.62695 -1.49737,1.89336 -1.49737,3.375 0,2.09907 1.22996,3.8125 2.74134,3.8125 0.35301,0 0.68075,-0.11221 0.99057,-0.28125 0.4596,1.20212 1.37051,2.03125 2.41882,2.03125 1.36805,0 2.49257,-1.3976 2.69527,-3.21875 1.34702,-0.23748 2.37275,-1.8147 2.37275,-3.75 0,-1.27177 -0.43812,-2.40383 -1.12878,-3.09375 0.0185,-0.17837 0.023,-0.34577 0.023,-0.53125 0,-2.09907 -1.20693,-3.8125 -2.7183,-3.8125 z"
         style="color:#000000;fill:#ffcc00;fill-opacity:1;fill-rule:evenodd;stroke:#aa8800;stroke-width:1;stroke-linecap:butt;stroke-linejoin:miter;stroke-miterlimit:4;stroke-opacity:1;stroke-dasharray:none;stroke-dashoffset:0;marker:none;visibility:visible;display:inline;overflow:visible;enable-background:accumulate" />
      <path
         sodipodi:type="arc"
         style="color:#000000;fill:#ffcc00;fill-opacity:1;fill-rule:evenodd;stroke:#aa8800;stroke-width:1;stroke-linecap:butt;stroke-linejoin:miter;stroke-miterlimit:4;stroke-opacity:1;stroke-dasharray:none;stroke-dashoffset:0;marker:none;visibility:visible;display:inline;overflow:visible;enable-background:accumulate"
         id="path4357"
         sodipodi:cx="472.52411"
         sodipodi:cy="262.96585"
         sodipodi:rx="3.7123106"
         sodipodi:ry="3.800699"
         d="m 476.23642,262.96585 a 3.7123106,3.800699 0 1 1 -7.42462,0 3.7123106,3.800699 0 1 1 7.42462,0 z"
         transform="translate(-3.0805824,-15.503495)" />
    </g>
  </g>
</svg>
